HIERARCHY
ROOT Hips
{
    OFFSET 0.000 93.594 0.000
    CHANNELS 6 Xposition Yposition Zposition Yrotation Xrotation Zrotation
    JOINT RightHip
    {
        OFFSET -9.500 -1.594 0.000
        CHANNELS 3 Yrotation Xrotation Zrotation
        JOINT RightKnee
        {
            OFFSET 0.000 -42.000 0.000
            CHANNELS 3 Yrotation Xrotation Zrotation
            JOINT RightAnkle
            {
                OFFSET 0.000 -42.000 0.000
                CHANNELS 3 Yrotation Xrotation Zrotation
                End Site
                {
                    OFFSET 0.000 -8.000 17.500
                }
            }
        }
    }
    JOINT LeftHip
    {
        OFFSET 9.500 -1.594 0.000
        CHANNELS 3 Yrotation Xrotation Zrotation
        JOINT LeftKnee
        {
            OFFSET 0.000 -42.000 0.000
            CHANNELS 3 Yrotation Xrotation Zrotation
            JOINT LeftAnkle
            {
                OFFSET 0.000 -42.000 0.000
                CHANNELS 3 Yrotation Xrotation Zrotation
                End Site
                {
                    OFFSET 0.000 -8.000 17.500
                }
            }
        }
    }
    JOINT Chest
    {
        OFFSET 0.000 14.348 0.000
        CHANNELS 3 Yrotation Xrotation Zrotation
        JOINT Chest2
        {
            OFFSET 0.000 9.746 0.000
            CHANNELS 3 Yrotation Xrotation Zrotation
            JOINT Chest3
            {
                OFFSET 0.000 10.149 0.000
                CHANNELS 3 Yrotation Xrotation Zrotation
                JOINT Chest4
                {
                    OFFSET 0.000 9.746 0.000
                    CHANNELS 3 Yrotation Xrotation Zrotation
                    JOINT Neck
                    {
                        OFFSET 0.000 10.417 0.000
                        CHANNELS 3 Yrotation Xrotation Zrotation
                        JOINT Head
                        {
                            OFFSET 0.000 9.000 0.000
                            CHANNELS 3 Yrotation Xrotation Zrotation
                            End Site
                            {
                                OFFSET 0.000 16.000 0.000
                            }
                        }
                    }
                    JOINT RightCollar
                    {
                        OFFSET -3.200 6.945 0.000
                        CHANNELS 3 Yrotation Xrotation Zrotation
                        JOINT RightShoulder
                        {
                            OFFSET -12.800 0.000 0.000
                            CHANNELS 3 Yrotation Xrotation Zrotation
                            JOINT RightElbow
                            {
OFFSET -0 -27 0.000
						CHANNELS 3 Xrotation Yrotation Zrotation
                                JOINT RightWrist
                                {
OFFSET -0 -26 0.000
						CHANNELS 3 Xrotation Yrotation Zrotation
                                    JOINT RightFinger0
                                    {
OFFSET -0.196 -2.56 3.210
						CHANNELS 3 Xrotation Yrotation Zrotation
                                        JOINT RightFinger01
                                        {
OFFSET -0 -3.788 0.000
						CHANNELS 3 Xrotation Yrotation Zrotation
                                            JOINT RightFinger0Nub
                                            {
OFFSET -0 -2.631 0.000
						CHANNELS 3 Xrotation Yrotation Zrotation
                                                End Site
                                                {
OFFSET 0 -2.256 0
                                                }
                                            }
                                        }
                                    }
                                    JOINT RightFinger1
                                    {
OFFSET -0.523 -3.316 2.035
						CHANNELS 3 Xrotation Yrotation Zrotation
                                        JOINT RightFinger11
                                        {
OFFSET 0.094 -5.366 1.028
						CHANNELS 3 Xrotation Yrotation Zrotation
                                            JOINT RightFinger12
                                            {
OFFSET -0 -3.723 0.000
						CHANNELS 3 Xrotation Yrotation Zrotation
                                                JOINT RightFinger1Nub
                                                {
OFFSET -0 -2.111 0.000
						CHANNELS 3 Xrotation Yrotation Zrotation
                                                    End Site
                                                    {
OFFSET 0 -1.857 0
                                                    }
                                                }
                                            }
                                        }
                                    }
                                    JOINT RightFinger2
                                    {
OFFSET -0.532 -3.479 0.778
						CHANNELS 3 Xrotation Yrotation Zrotation
                                        JOINT RightFinger21
                                        {
OFFSET 0.086 -5.322 0.323
						CHANNELS 3 Xrotation Yrotation Zrotation
                                            JOINT RightFinger22
                                            {
OFFSET -0 -4.062 0.000
						CHANNELS 3 Xrotation Yrotation Zrotation
                                                JOINT RightFinger2Nub
                                                {
OFFSET -0 -2.547 0.000
						CHANNELS 3 Xrotation Yrotation Zrotation
                                                    End Site
                                                    {
OFFSET 0 -2.031 0
                                                    }
                                                }
                                            }
                                        }
                                    }
                                    JOINT RightFinger3
                                    {
OFFSET -0.553 -3.461 -0.133
						CHANNELS 3 Xrotation Yrotation Zrotation
                                        JOINT RightFinger31
                                        {
OFFSET 0.023 -4.767 -0.493
						CHANNELS 3 Xrotation Yrotation Zrotation
                                            JOINT RightFinger32
                                            {
OFFSET -0 -3.541 0.000
						CHANNELS 3 Xrotation Yrotation Zrotation
                                                JOINT RightFinger3Nub
                                                {
OFFSET -0 -2.456 0.000
						CHANNELS 3 Xrotation Yrotation Zrotation
                                                    End Site
                                                    {
OFFSET 0 -1.91 0
                                                    }
                                                }
                                            }
                                        }
                                    }
                                    JOINT RightFinger4
                                    {
OFFSET -0.483 -3.251 -1.236
						CHANNELS 3 Xrotation Yrotation Zrotation
                                        JOINT RightFinger41
                                        {
OFFSET 0.023 -4.259 -1.122
						CHANNELS 3 Xrotation Yrotation Zrotation
                                            JOINT RightFinger42
                                            {
OFFSET -0 -2.835 0.000
						CHANNELS 3 Xrotation Yrotation Zrotation
                                                JOINT RightFinger4Nub
                                                {
OFFSET -0 -1.792 0.000
						CHANNELS 3 Xrotation Yrotation Zrotation
                                                    End Site
                                                    {
OFFSET 0 -1.692 0
                                                    }
                                                }
                                            }
                                        }
                                    }
                                }
                            }
                        }
                    }
                    JOINT LeftCollar
                    {
                        OFFSET 3.200 6.945 0.000
                        CHANNELS 3 Yrotation Xrotation Zrotation
                        JOINT LeftShoulder
                        {
                            OFFSET 12.800 0.000 0.000
                            CHANNELS 3 Yrotation Xrotation Zrotation
                            JOINT LeftElbow
                            {
OFFSET -0 -27 0.000
						CHANNELS 3 Xrotation Yrotation Zrotation
                                JOINT LeftWrist
                                {
OFFSET -0 -26 0.000
						CHANNELS 3 Xrotation Yrotation Zrotation
                                    JOINT LeftFinger0
                                    {
OFFSET -0.196 -2.56 3.210
						CHANNELS 3 Xrotation Yrotation Zrotation
                                        JOINT LeftFinger01
                                        {
OFFSET -0 -3.788 0.000
						CHANNELS 3 Xrotation Yrotation Zrotation
                                            JOINT LeftFinger0Nub
                                            {
OFFSET -0 -2.631 0.000
						CHANNELS 3 Xrotation Yrotation Zrotation
                                                End Site
                                                {
OFFSET 0 -2.256 0
                                                }
                                            }
                                        }
                                    }
                                    JOINT LeftFinger1
                                    {
OFFSET -0.523 -3.316 2.035
						CHANNELS 3 Xrotation Yrotation Zrotation
                                        JOINT LeftFinger11
                                        {
OFFSET 0.094 -5.366 1.028
						CHANNELS 3 Xrotation Yrotation Zrotation
                                            JOINT LeftFinger12
                                            {
OFFSET -0 -3.723 0.000
						CHANNELS 3 Xrotation Yrotation Zrotation
                                                JOINT LeftFinger1Nub
                                                {
OFFSET -0 -2.111 0.000
						CHANNELS 3 Xrotation Yrotation Zrotation
                                                    End Site
                                                    {
OFFSET 0 -1.857 0
                                                    }
                                                }
                                            }
                                        }
                                    }
                                    JOINT LeftFinger2
                                    {
OFFSET -0.532 -3.479 0.778
						CHANNELS 3 Xrotation Yrotation Zrotation
                                        JOINT LeftFinger21
                                        {
OFFSET 0.086 -5.322 0.323
						CHANNELS 3 Xrotation Yrotation Zrotation
                                            JOINT LeftFinger22
                                            {
OFFSET -0 -4.062 0.000
						CHANNELS 3 Xrotation Yrotation Zrotation
                                                JOINT LeftFinger2Nub
                                                {
OFFSET -0 -2.547 0.000
						CHANNELS 3 Xrotation Yrotation Zrotation
                                                    End Site
                                                    {
OFFSET 0 -2.031 0
                                                    }
                                                }
                                            }
                                        }
                                    }
                                    JOINT LeftFinger3
                                    {
OFFSET -0.553 -3.461 -0.133
						CHANNELS 3 Xrotation Yrotation Zrotation
                                        JOINT LeftFinger31
                                        {
OFFSET 0.023 -4.767 -0.493
						CHANNELS 3 Xrotation Yrotation Zrotation
                                            JOINT LeftFinger32
                                            {
OFFSET -0 -3.541 0.000
						CHANNELS 3 Xrotation Yrotation Zrotation
                                                JOINT LeftFinger3Nub
                                                {
OFFSET -0 -2.456 0.000
						CHANNELS 3 Xrotation Yrotation Zrotation
                                                    End Site
                                                    {
OFFSET 0 -1.91 0
                                                    }
                                                }
                                            }
                                        }
                                    }
                                    JOINT LeftFinger4
                                    {
OFFSET -0.483 -3.251 -1.236
						CHANNELS 3 Xrotation Yrotation Zrotation
                                        JOINT LeftFinger41
                                        {
OFFSET 0.023 -4.259 -1.122
						CHANNELS 3 Xrotation Yrotation Zrotation
                                            JOINT LeftFinger42
                                            {
OFFSET -0 -2.835 0.000
						CHANNELS 3 Xrotation Yrotation Zrotation
                                                JOINT LeftFinger4Nub
                                                {
OFFSET -0 -1.792 0.000
						CHANNELS 3 Xrotation Yrotation Zrotation
                                                    End Site
                                                    {
OFFSET 0 -1.692 0
                                                    }
                                                }
                                            }
                                        }
                                    }
                                }
                            }
                        }
                    }
                }
            }
        }
    }
}
MOTION

Frames: 6
Frame Time: 0.017
-211.88 91.15 77.56 83.58 -0.21 -5.25 -8.80 -3.48 -7.63 -0.00 17.88 -0.00 -34.73 -3.46 16.29 -19.69 -19.93 14.57 0.00 34.05 0.00 7.64 -11.69 -9.92 -13.61 -0.66 2.58 -3.43 -0.11 0.62 -5.61 -0.07 1.03 1.28 2.43 -0.87 -3.83 41.38 -13.72 4.73 40.25 -16.33 11.37 -4.35 0.85 -15.14 -10.18 -49.81 -41.84 -28.3 103.62 -14.16 9.78 -6.15 -48.28 -0 25.04 13.98 -0 -4.78 -0.72 -0 0.00 0 -0 0.00 -15 -0 2.34 0 -0 8.24 0 -0 4.12 0 -0 0.00 0 -0 8.01 0 -0 8.01 0 -0 8.01 0 -0 0.00 15 -0 23.99 0 -0 23.99 0 -0 23.99 0 -0 0.00 25 -0 29.16 0 -0 29.16 0 -0 29.16 -13.72 2.95 -0.98 26.91 -19.27 24.2 30.69 56.96 -107.55 -21.14 45.89 23.17 -26.53 0 -32.95 -43.01 0 11.27 24.74 0 0.00 0.00 0 0.00 -15.00 0 -2.93 0.00 0 -8.27 0.00 0 -4.14 0.00 0 0.00 0.00 0 -20.53 0.00 0 -20.53 0.00 0 -20.53 0.00 0 0.00 15.00 0 -28.55 0.00 0 -28.55 0.00 0 -28.55 0.00 0 0.00 25.00 0 -25.35 0.00 0 -25.35 0.00 0 -25.35 
-211.58 91.03 77.34 82.90 -0.24 -5.21 -8.23 -3.52 -7.91 0.00 18.00 0.00 -34.54 -3.22 16.64 -19.28 -20.18 14.34 0.00 35.00 0.00 7.97 -12.38 -9.89 -13.53 -0.55 2.41 -3.41 -0.09 0.58 -5.58 -0.04 0.96 1.30 2.41 -0.88 -3.80 41.02 -13.88 5.35 40.37 -16.30 11.46 -4.34 0.68 -14.56 -10.62 -49.47 -41.29 -28.24 104.08 -13.53 9.53 -6.97 -48.13 -0 24.79 14.29 -0 -5.03 -0.3 -0 0.00 0 -0 0.00 -15 -0 2.43 0 -0 8.23 0 -0 4.12 0 -0 0.00 0 -0 8.20 0 -0 8.20 0 -0 8.20 0 -0 0.00 15 -0 24.19 0 -0 24.19 0 -0 24.19 0 -0 0.00 25 -0 29.39 0 -0 29.39 0 -0 29.39 -13.80 3.06 -0.91 26.92 -19.61 24.67 31.83 57.27 -108.74 -21.96 46.1 24.15 -26.56 0 -32.87 -43.08 0 11.34 24.77 0 0.00 0.00 0 0.00 -15.00 0 -3.00 0.00 0 -8.72 0.00 0 -4.36 0.00 0 0.00 0.00 0 -20.62 0.00 0 -20.62 0.00 0 -20.62 0.00 0 0.00 15.00 0 -28.57 0.00 0 -28.57 0.00 0 -28.57 0.00 0 0.00 25.00 0 -25.39 0.00 0 -25.39 0.00 0 -25.39 
-211.27 90.97 77.17 82.90 -0.24 -5.21 -8.23 -3.25 -8.09 -0.00 17.82 -0.00 -34.53 -3.18 16.84 -19.19 -20.35 14.15 0.00 35.60 0.00 7.92 -12.86 -9.76 -13.53 -0.55 2.41 -3.41 -0.09 0.58 -5.58 -0.04 0.96 1.30 2.41 -0.88 -3.80 41.02 -13.88 5.35 40.37 -16.30 11.54 -6.78 4.14 -15.43 -7.99 -51.12 -43.91 -26.82 102.25 -18 14.1 -2.16 -48.85 -0 26.07 12.83 -0 -3.75 -3.07 -0 0.00 0 -0 0.00 -15 -0 0.96 0 -0 7.70 0 -0 3.85 0 -0 0.00 0 -0 5.57 0 -0 5.57 0 -0 5.57 0 -0 0.00 15 -0 21.07 0 -0 21.07 0 -0 21.07 0 -0 0.00 25 -0 26.34 0 -0 26.34 0 -0 26.34 -12.40 -0.38 -0.90 27.29 -19.06 26.22 27.97 55.67 -102.74 -12.94 44.82 13.38 -26.00 0 -34.39 -41.96 0 9.83 24.67 0 0.00 0.00 0 0.00 -15.00 0 -0.76 0.00 0 -5.55 0.00 0 -2.77 0.00 0 0.00 0.00 0 -17.98 0.00 0 -17.98 0.00 0 -17.98 0.00 0 0.00 15.00 0 -27.63 0.00 0 -27.63 0.00 0 -27.63 0.00 0 0.00 25.00 0 -23.13 0.00 0 -23.13 0.00 0 -23.13 
-210.96 90.93 76.99 82.90 -0.24 -5.21 -8.23 -2.94 -8.27 -0.00 17.53 -0.00 -34.53 -3.10 17.00 -19.07 -20.46 13.96 -0.00 36.07 -0.00 7.87 -13.28 -9.61 -13.53 -0.55 2.41 -3.41 -0.09 0.58 -5.58 -0.04 0.96 1.30 2.41 -0.88 -3.80 41.02 -13.88 5.35 40.37 -16.30 11.56 -6.73 4.09 -15.48 -7.96 -51.08 -43.97 -26.86 102.24 -18.01 14.07 -2.10 -48.85 -0 26.07 12.85 -0 -3.75 -3.07 -0 0.00 0 -0 0.00 -15 -0 0.98 0 -0 7.73 0 -0 3.86 0 -0 0.00 0 -0 5.59 0 -0 5.59 0 -0 5.59 0 -0 0.00 15 -0 21.08 0 -0 21.08 0 -0 21.08 0 -0 0.00 25 -0 26.33 0 -0 26.33 0 -0 26.33 -12.40 -0.31 -0.93 27.32 -19.08 26.23 27.96 55.7 -102.77 -12.87 44.75 13.27 -26.02 0 -34.34 -41.99 0 9.87 24.68 0 0.00 0.00 0 0.00 -15.00 0 -0.89 0.00 0 -5.81 0.00 0 -2.91 0.00 0 0.00 0.00 0 -18.08 0.00 0 -18.08 0.00 0 -18.08 0.00 0 0.00 15.00 0 -27.71 0.00 0 -27.71 0.00 0 -27.71 0.00 0 0.00 25.00 0 -23.21 0.00 0 -23.21 0.00 0 -23.21 
-210.64 91.09 76.70 86.66 1.86 -3.40 -9.85 -3.92 -9.76 0.00 17.27 0.00 -37.20 -3.59 17.45 -17.49 -23.06 12.24 0.00 34.07 0.00 3.03 -12.71 -8.82 -14.28 -3.36 2.96 -3.60 -0.71 0.65 -5.90 -0.99 1.09 1.19 2.52 -0.85 -4.11 43.50 -13.44 1.50 40.20 -17.07 9.17 -4.67 2.22 -15.52 -7.96 -51.03 -47.88 -27.86 96.32 -18.2 9.4 0.84 -48.84 -0 26.08 12.85 -0 -3.74 -3.06 -0 0.00 0 -0 0.00 -15 -0 0.99 0 -0 7.75 0 -0 3.88 0 -0 0.00 0 -0 5.59 0 -0 5.59 0 -0 5.59 0 -0 0.00 15 -0 21.06 0 -0 21.06 0 -0 21.06 0 -0 0.00 25 -0 26.33 0 -0 26.33 0 -0 26.33 -15.01 0.83 -3.46 27.37 -19.09 26.26 27.90 55.69 -102.78 -12.78 44.66 13.15 -26.05 0 -34.29 -42.06 0 9.92 24.67 0 0.00 0.00 0 0.00 -15.00 0 -0.98 0.00 0 -6.10 0.00 0 -3.05 0.00 0 0.00 0.00 0 -18.14 0.00 0 -18.14 0.00 0 -18.14 0.00 0 0.00 15.00 0 -27.81 0.00 0 -27.81 0.00 0 -27.81 0.00 0 0.00 25.00 0 -23.24 0.00 0 -23.24 0.00 0 -23.24 
-210.38 91.13 76.46 86.69 1.89 -3.40 -9.75 -3.40 -9.91 -0.00 16.47 -0.00 -37.38 -3.25 17.45 -17.38 -23.12 12.02 -0.00 34.28 0.00 2.93 -12.95 -8.60 -14.27 -3.36 2.94 -3.60 -0.71 0.64 -5.89 -0.99 1.08 1.19 2.52 -0.85 -4.10 43.50 -13.40 1.51 40.17 -17.02 9.15 -4.65 2.20 -15.59 -7.97 -51 -47.91 -27.87 96.39 -18.21 9.38 0.83 -48.84 -0 26.08 12.86 -0 -3.74 -3.05 -0 0.00 0 -0 0.00 -15 -0 1.01 0 -0 7.77 0 -0 3.89 0 -0 0.00 0 -0 5.59 0 -0 5.59 0 -0 5.59 0 -0 0.00 15 -0 21.04 0 -0 21.04 0 -0 21.04 0 -0 0.00 25 -0 26.34 0 -0 26.34 0 -0 26.34 -15.04 0.88 -3.45 27.41 -19.11 26.26 27.79 55.7 -102.74 -12.72 44.52 13.07 -26.08 0 -34.21 -42.12 0 10.00 24.68 0 0.00 0.00 0 0.00 -15.00 0 -1.02 0.00 0 -6.36 0.00 0 -3.18 0.00 0 0.00 0.00 0 -18.16 0.00 0 -18.16 0.00 0 -18.16 0.00 0 0.00 15.00 0 -27.88 0.00 0 -27.88 0.00 0 -27.88 0.00 0 0.00 25.00 0 -23.27 0.00 0 -23.27 0.00 0 -23.27 
